<?xml version="1.0" encoding="utf-8"?>
<!-- Generator: Adobe Illustrator 24.0.0, SVG Export Plug-In . SVG Version: 6.00 Build 0)  -->
<svg version="1.1" id="Capa_1" xmlns="http://www.w3.org/2000/svg" xmlns:xlink="http://www.w3.org/1999/xlink" x="0px" y="0px"
	 viewBox="0 0 1920 1080" style="enable-background:new 0 0 1920 1080;" xml:space="preserve">
<style type="text/css">
	.st0{fill:#856FCD;stroke:#000000;stroke-width:0.5;stroke-miterlimit:10;}
	.st1{fill:#5C3FBC;}
	.st2{fill:#FC66B9;}
	.st3{fill:#24125F;}
	.st4{fill:#FA008A;}
	.st5{fill:#FFFFFF;}
	.st6{fill:none;stroke:#24125F;stroke-width:4;stroke-miterlimit:10;}
</style>
<g>
	<g>
		<g>
			<g>
				<path class="st0" d="M1441.38,615.77l-164.27,226.1c-124.87-90.72-152.55-265.5-61.83-390.37
					c54.43-74.92,133.49-115.2,226.1-115.2V615.77z"/>
			</g>
		</g>
		<g>
			<g>
				<path class="st1" d="M1441.38,615.77l253.29,118.11c-65.23,139.89-231.51,200.41-371.4,135.18
					c-16.79-7.83-31.18-16.3-46.16-27.19L1441.38,615.77z"/>
			</g>
		</g>
		<g>
			<g>
				<path class="st2" d="M1441.38,615.77V336.3c154.35,0,279.48,125.13,279.48,279.48c0,43.22-7.92,78.94-26.18,118.11
					L1441.38,615.77z"/>
			</g>
		</g>
	</g>
	<g>
		<g>
		</g>
		<g>
		</g>
		<g>
		</g>
	</g>
</g>
<g>
	<g>
		<g>
			<g>
				<path class="st3" d="M513.94,623.89L767.23,742C702,881.89,535.72,942.41,395.83,877.18s-200.41-231.51-135.18-371.4
					c46.97-100.72,142.16-161.36,253.29-161.36V623.89z"/>
			</g>
		</g>
		<g>
			<g>
				<path class="st4" d="M513.94,623.89V344.42c154.35,0,279.47,125.13,279.47,279.48c0,43.22-7.92,78.94-26.18,118.11
					L513.94,623.89z"/>
			</g>
		</g>
	</g>
	<g>
		<g>
		</g>
		<g>
		</g>
	</g>
</g>
<g>
	<g>
		<path class="st3" d="M676.06,71.35h10.46c12.02,0,19.13,6.48,19.13,19.46c0,12.98-7.1,19.78-18.77,19.78h-10.82V71.35z
			 M686.07,104.95c7.9,0,12.43-4.49,12.43-14.14c0-9.65-4.54-13.82-12.43-13.82h-3.05v27.96H686.07z"/>
		<path class="st3" d="M713.56,71.35h23.62v5.86h-16.66v10.06h14.11v5.86h-14.11v11.62h17.26v5.86h-24.22V71.35z"/>
		<path class="st3" d="M743.16,105.56l4.06-4.78c2.81,2.68,6.58,4.48,10.22,4.48c4.42,0,6.84-2,6.84-5.06c0-3.23-2.53-4.26-6.1-5.77
			l-5.36-2.33c-3.86-1.61-7.93-4.67-7.93-10.4c0-6.25,5.52-11.06,13.18-11.06c4.58,0,9.02,1.9,12.1,5l-3.58,4.42
			c-2.5-2.12-5.16-3.37-8.52-3.37c-3.72,0-6.14,1.74-6.14,4.61c0,3.08,2.99,4.22,6.24,5.56l5.29,2.22c4.67,1.94,7.93,4.9,7.93,10.58
			c0,6.36-5.28,11.66-14.09,11.66C751.99,111.31,746.88,109.22,743.16,105.56z"/>
		<path class="st3" d="M778.54,71.35h23.62v5.86H785.5v10.06h14.11v5.86H785.5v11.62h17.26v5.86h-24.22V71.35z"/>
		<path class="st3" d="M810.82,71.35h7.87l6.94,19.17c0.86,2.5,1.66,5.14,2.52,7.7h0.24c0.86-2.57,1.61-5.21,2.47-7.7l6.79-19.17
			h7.87v39.24h-6.38V92.64c0-3.62,0.55-8.84,0.89-12.48h-0.24l-3.17,9.12l-6.46,17.63h-4.13l-6.48-17.63l-3.12-9.12h-0.24
			c0.34,3.64,0.89,8.86,0.89,12.48v17.95h-6.26V71.35z"/>
		<path class="st3" d="M855.52,71.35h12.55c8.06,0,13.99,2.47,13.99,9.67c0,3.7-2.02,7.3-5.45,8.5v0.24
			c4.34,0.98,7.54,4.01,7.54,9.31c0,7.85-6.43,11.52-15.07,11.52h-13.56V71.35z M867.45,87.55c5.47,0,7.8-2.14,7.8-5.54
			c0-3.79-2.57-5.23-7.66-5.23h-5.11v10.78H867.45z M868.36,105.17c5.76,0,8.98-2.06,8.98-6.48c0-4.13-3.12-5.93-8.98-5.93h-5.88
			v12.41H868.36z"/>
		<path class="st3" d="M899.02,71.35h8.16l12.79,39.24h-7.37l-5.98-20.88c-1.25-4.15-2.4-8.63-3.55-12.94h-0.24
			c-1.08,4.34-2.23,8.78-3.48,12.94l-6.02,20.88h-7.1L899.02,71.35z M893.79,94.5h18.48v5.46h-18.48V94.5z"/>
		<path class="st3" d="M924.82,71.35h13.22c8.16,0,14.45,2.88,14.45,11.64c0,8.44-6.29,12.26-14.45,12.26h-6.26v15.34h-6.96V71.35z
			 M937.33,89.69c5.38,0,8.3-2.23,8.3-6.7c0-4.51-2.93-6.07-8.3-6.07h-5.54v12.77H937.33z M936.74,93.39l5.04-4.15l12.25,21.35
			h-7.82L936.74,93.39z"/>
		<path class="st3" d="M958.28,90.81c0-12.7,7.08-20.18,17.3-20.18s17.3,7.52,17.3,20.18c0,12.7-7.08,20.5-17.3,20.5
			S958.28,103.51,958.28,90.81z M985.73,90.81c0-8.81-3.98-14.14-10.15-14.14s-10.15,5.33-10.15,14.14
			c0,9.17,3.98,14.78,10.15,14.78S985.73,99.98,985.73,90.81z M972.05,110.37l7.13-0.65c1.54,3.91,5.47,5.62,9.65,5.62
			c1.73,0,3.14-0.28,4.25-0.62l1.27,5.18c-1.32,0.6-3.59,1.1-6.29,1.1C979.97,121,974.45,116.47,972.05,110.37z"/>
		<path class="st3" d="M1000.59,93.38V71.35h6.96v22.56c0,8.54,3.19,11.35,7.94,11.35c4.8,0,8.11-2.81,8.11-11.35V71.35h6.7v22.03
			c0,12.89-5.71,17.93-14.81,17.93S1000.59,106.27,1000.59,93.38z"/>
		<path class="st3" d="M1040.08,71.35h23.62v5.86h-16.66v10.06h14.11v5.86h-14.11v11.62h17.26v5.86h-24.22V71.35z"/>
		<path class="st3" d="M1092.28,77.21h-11.33v-5.86h29.62v5.86h-11.33v33.38h-6.96V77.21z"/>
		<path class="st3" d="M1115.06,90.81c0-12.7,7.08-20.18,17.3-20.18c10.22,0,17.3,7.52,17.3,20.18c0,12.7-7.08,20.5-17.3,20.5
			C1122.14,111.31,1115.06,103.51,1115.06,90.81z M1142.51,90.81c0-8.81-3.98-14.14-10.15-14.14c-6.17,0-10.15,5.33-10.15,14.14
			s3.98,14.45,10.15,14.45C1138.53,105.26,1142.51,99.62,1142.51,90.81z"/>
		<path class="st3" d="M1165.48,77.21h-11.33v-5.86h29.62v5.86h-11.33v33.38h-6.96V77.21z"/>
		<path class="st3" d="M1198,71.35h8.16l12.79,39.24h-7.37l-5.98-20.88c-1.25-4.15-2.4-8.63-3.55-12.94h-0.24
			c-1.08,4.34-2.23,8.78-3.48,12.94l-6.02,20.88h-7.1L1198,71.35z M1192.77,94.5h18.48v5.46h-18.48V94.5z"/>
		<path class="st3" d="M1223.8,71.35h6.96v33.38h16.29v5.86h-23.25V71.35z"/>
		<path class="st3" d="M822.87,177.91l1.2-1.32c2.28,2.52,5.4,5.04,10.92,5.04c5.4,0,9.36-3.6,9.36-9c0-5.52-4.08-9.36-13.8-9.36
			v-1.8c9.12,0,12.36-3.96,12.36-8.76c0-4.56-3.24-7.56-8.16-7.56c-3.6,0-6.84,1.92-9,4.32l-1.2-1.32c2.52-2.52,5.76-4.68,10.2-4.68
			c5.64,0,10.08,3.36,10.08,9.12c0,5.16-3.24,8.22-7.44,9.6v0.24c4.8,0.96,8.88,4.56,8.88,10.08c0,6.6-4.92,10.8-11.4,10.8
			C828.75,183.31,825.27,180.43,822.87,177.91z"/>
		<path class="st3" d="M853.47,181.03c0-1.56,1.08-2.4,2.16-2.4s2.16,0.84,2.16,2.4c0,1.44-1.08,2.28-2.16,2.28
			S853.47,182.47,853.47,181.03z"/>
		<path class="st3" d="M864.27,172.75c0-5.28,4.2-9.12,7.8-11.04v-0.24c-2.76-1.8-5.52-4.68-5.52-8.76c0-5.4,4.32-9.24,9.72-9.24
			c6.48,0,10.2,4.32,10.2,9.96c0,4.32-3.36,8.16-5.52,9.96v0.24c3.24,2.04,6.72,4.56,6.72,9.72c0,5.52-4.56,9.96-11.4,9.96
			C869.31,183.31,864.27,178.75,864.27,172.75z M885.75,173.35c0-6.24-6.12-8.4-12.24-10.8c-4.2,2.4-7.32,5.76-7.32,10.2
			c0,4.92,4.2,8.88,10.08,8.88C882.03,181.63,885.75,177.91,885.75,173.35z M884.55,153.43c0-4.44-3-8.28-8.28-8.28
			c-4.56,0-7.8,3.24-7.8,7.56c0,5.76,5.52,8.04,10.68,10.08C882.63,160.03,884.55,156.91,884.55,153.43z"/>
		<path class="st3" d="M893.19,163.27c0-12.72,3.96-19.8,11.16-19.8c7.2,0,11.16,7.08,11.16,19.8c0,12.72-3.96,20.04-11.16,20.04
			C897.15,183.31,893.19,175.99,893.19,163.27z M913.59,163.27c0-11.88-3.6-18.12-9.24-18.12c-5.64,0-9.24,6.24-9.24,18.12
			c0,11.88,3.6,18.36,9.24,18.36C909.99,181.63,913.59,175.15,913.59,163.27z"/>
		<path class="st3" d="M920.31,177.91l1.2-1.32c2.28,2.52,5.4,5.04,10.92,5.04c5.4,0,9.36-3.6,9.36-9c0-5.52-4.08-9.36-13.8-9.36
			v-1.8c9.12,0,12.36-3.96,12.36-8.76c0-4.56-3.24-7.56-8.16-7.56c-3.6,0-6.84,1.92-9,4.32l-1.2-1.32c2.52-2.52,5.76-4.68,10.2-4.68
			c5.64,0,10.08,3.36,10.08,9.12c0,5.16-3.24,8.22-7.44,9.6v0.24c4.8,0.96,8.88,4.56,8.88,10.08c0,6.6-4.92,10.8-11.4,10.8
			C926.19,183.31,922.71,180.43,920.31,177.91z"/>
		<path class="st3" d="M950.91,181.03c0-1.56,1.08-2.4,2.16-2.4s2.16,0.84,2.16,2.4c0,1.44-1.08,2.28-2.16,2.28
			S950.91,182.47,950.91,181.03z"/>
		<path class="st3" d="M962.3,163.27c0-12.72,3.96-19.8,11.16-19.8c7.2,0,11.16,7.08,11.16,19.8c0,12.72-3.96,20.04-11.16,20.04
			C966.26,183.31,962.3,175.99,962.3,163.27z M982.7,163.27c0-11.88-3.6-18.12-9.24-18.12s-9.24,6.24-9.24,18.12
			c0,11.88,3.6,18.36,9.24,18.36S982.7,175.15,982.7,163.27z"/>
		<path class="st3" d="M990.62,163.27c0-12.72,3.96-19.8,11.16-19.8c7.2,0,11.16,7.08,11.16,19.8c0,12.72-3.96,20.04-11.16,20.04
			C994.58,183.31,990.62,175.99,990.62,163.27z M1011.02,163.27c0-11.88-3.6-18.12-9.24-18.12s-9.24,6.24-9.24,18.12
			c0,11.88,3.6,18.36,9.24,18.36S1011.02,175.15,1011.02,163.27z"/>
		<path class="st3" d="M1018.94,163.27c0-12.72,3.96-19.8,11.16-19.8c7.2,0,11.16,7.08,11.16,19.8c0,12.72-3.96,20.04-11.16,20.04
			C1022.9,183.31,1018.94,175.99,1018.94,163.27z M1039.34,163.27c0-11.88-3.6-18.12-9.24-18.12s-9.24,6.24-9.24,18.12
			c0,11.88,3.6,18.36,9.24,18.36S1039.34,175.15,1039.34,163.27z"/>
		<path class="st3" d="M1065,162.34h-7.48v-1.18h16.3v1.18h-7.48v20.25H1065V162.34z"/>
		<path class="st3" d="M1079.28,161.17h1.43l10.17,15.46l2.6,4.16h0.17c-0.08-2.06-0.17-4.07-0.17-6.13v-13.48h1.26v21.42h-1.43
			l-10.17-15.37l-2.6-4.24h-0.17c0.08,2.06,0.17,3.95,0.17,5.97v13.65h-1.26V161.17z"/>
	</g>
</g>
<g>
	<g>
		<g>
			<path class="st5" d="M338.69,692.19c0-18.51,9.61-26.85,20.02-26.85c6.55,0,11.34,2.77,14.48,5.96l-6.06,6.86
				c-1.68-1.91-4.79-3.57-7.68-3.57c-5.76,0-10.3,4.39-10.3,17.59c0,12.29,3.86,15.94,8.04,15.94c3.38,0,6.24-2.39,6.24-7.99
				c0-5.24-2.76-7.22-6.5-7.22c-2.59,0-5.46,1.44-7.7,5.34l-0.51-7.49c2.56-3.75,7.17-5.95,10.43-5.95
				c8.48,0,14.75,4.82,14.75,15.31c0,10.3-7.5,16.6-16.47,16.6C347.83,716.74,338.69,709.58,338.69,692.19z"/>
			<path class="st5" d="M379.93,703.14c0-5.96,3.79-9.67,8.47-12.17v-0.31c-3.84-2.85-6.66-6.47-6.66-11.64
				c0-8.43,6.64-13.68,15.85-13.68c9.07,0,15.06,5.36,15.06,13.59c0,4.72-3.08,8.55-6.47,10.83v0.31c4.73,2.59,8.54,6.38,8.54,12.96
				c0,7.82-7.02,13.72-17.52,13.72C387.32,716.74,379.93,711.2,379.93,703.14z M404.06,702.64c0-4.38-4.23-6.03-10.45-8.64
				c-2.18,1.96-3.8,4.79-3.8,7.86c0,4.34,3.47,6.92,7.64,6.92C401.22,708.77,404.06,706.77,404.06,702.64z M403.34,679.7
				c0-3.84-2.23-6.39-6.01-6.39c-3.04,0-5.51,1.9-5.51,5.71c0,4.02,3.45,5.95,8.48,7.96C402.25,684.68,403.34,682.3,403.34,679.7z"
				/>
			<path class="st5" d="M419.86,680.11c0-10.17,5.34-16.07,12.69-16.07c7.35,0,12.69,5.9,12.69,16.07
				c0,10.19-5.34,16.22-12.69,16.22C425.2,696.33,419.86,690.3,419.86,680.11z M437.24,680.11c0-7.22-2.12-9.67-4.7-9.67
				c-2.58,0-4.7,2.45-4.7,9.67c0,7.22,2.12,9.82,4.7,9.82C435.12,689.93,437.24,687.33,437.24,680.11z M461.75,664.04h6.61
				l-27.44,52.7h-6.61L461.75,664.04z M457.36,700.52c0-10.17,5.34-16.07,12.69-16.07c7.35,0,12.69,5.9,12.69,16.07
				c0,10.19-5.34,16.22-12.69,16.22C462.7,716.74,457.36,710.71,457.36,700.52z M474.74,700.52c0-7.22-2.12-9.67-4.7-9.67
				c-2.58,0-4.7,2.45-4.7,9.67c0,7.22,2.12,9.82,4.7,9.82C472.62,710.34,474.74,707.74,474.74,700.52z"/>
		</g>
	</g>
</g>
<g>
	<g>
		<path class="st5" d="M571.2,545.72l5.29-7.24c3.03,2.89,6.7,5.01,10.85,5.01c4.83,0,8.05-2.11,8.05-5.92
			c0-4.35-2.54-7.03-13.31-7.03v-8.12c8.9,0,11.7-2.71,11.7-6.63c0-3.49-2.22-5.46-6.11-5.46c-3.52,0-6.19,1.6-9.26,4.33l-5.8-6.98
			c4.56-3.92,9.54-6.34,15.57-6.34c10.29,0,17.09,4.88,17.09,13.59c0,5.1-2.93,8.76-8.26,11v0.31c5.73,1.63,9.87,5.67,9.87,12.07
			c0,9.22-8.45,14.42-18.42,14.42C580.45,552.74,574.83,549.9,571.2,545.72z"/>
		<path class="st5" d="M613.57,545.23c12.6-11.92,21.49-20.37,21.49-27.47c0-4.79-2.66-7.43-7.02-7.43c-3.52,0-6.32,2.42-8.8,5.04
			l-6.21-6.19c4.87-5.21,9.5-7.85,16.58-7.85c9.76,0,16.42,6.23,16.42,15.78c0,8.34-7.79,17.23-15.9,25.61
			c2.55-0.29,6-0.57,8.29-0.57h9.97v9.64h-34.83V545.23z"/>
		<path class="st5" d="M653.86,516.11c0-10.17,5.34-16.07,12.69-16.07c7.35,0,12.69,5.9,12.69,16.07c0,10.19-5.34,16.22-12.69,16.22
			C659.2,532.33,653.86,526.3,653.86,516.11z M671.24,516.11c0-7.22-2.12-9.67-4.7-9.67c-2.58,0-4.7,2.45-4.7,9.67
			c0,7.22,2.12,9.82,4.7,9.82C669.12,525.93,671.24,523.33,671.24,516.11z M695.75,500.04h6.61l-27.44,52.7h-6.61L695.75,500.04z
			 M691.36,536.52c0-10.17,5.34-16.07,12.69-16.07c7.35,0,12.69,5.9,12.69,16.07c0,10.19-5.34,16.22-12.69,16.22
			C696.7,552.74,691.36,546.71,691.36,536.52z M708.74,536.52c0-7.22-2.12-9.67-4.7-9.67c-2.58,0-4.7,2.45-4.7,9.67
			c0,7.22,2.12,9.82,4.7,9.82C706.62,546.34,708.74,543.74,708.74,536.52z"/>
	</g>
</g>
<g>
	<g>
		<path class="st5" d="M1510.26,546.72l3.22-4.18c2.99,3.1,6.88,5.86,12.7,5.86c6.04,0,10.33-3.53,10.33-9.12
			c0-5.91-4.07-9.87-15.87-9.87v-4.92c10.53,0,14.11-4.06,14.11-9.26c0-4.84-3.32-7.88-8.6-7.88c-4.16,0-7.69,2.09-10.61,5.04
			l-3.45-4.07c3.85-3.56,8.41-6.2,14.29-6.2c8.65,0,14.88,4.6,14.88,12.63c0,5.99-3.64,9.82-9.04,11.82v0.31
			c6.01,1.42,10.8,5.81,10.8,12.64c0,8.87-7.31,14.21-16.42,14.21C1518.62,553.74,1513.61,550.4,1510.26,546.72z"/>
		<path class="st5" d="M1550.07,549.01c14.95-14.9,23.41-23.86,23.41-31.95c0-5.68-3.09-9.71-9.44-9.71
			c-4.16,0-7.74,2.64-10.57,5.96l-3.72-3.63c4.16-4.57,8.64-7.56,15.09-7.56c9.19,0,14.93,5.8,14.93,14.64
			c0,9.33-8.57,18.61-20.3,30.95c2.69-0.21,5.79-0.43,8.37-0.43h14.38v5.51h-32.13V549.01z"/>
		<path class="st5" d="M1588.44,516.75c0-10.24,4.63-16.07,11.62-16.07s11.62,5.83,11.62,16.07c0,10.34-4.63,16.22-11.62,16.22
			S1588.44,527.08,1588.44,516.75z M1606.82,516.75c0-8.14-2.76-12.09-6.76-12.09c-4,0-6.76,3.94-6.76,12.09
			c0,8.14,2.76,12.24,6.76,12.24C1604.06,528.99,1606.82,524.89,1606.82,516.75z M1629.76,500.68h4.33l-28.22,53.06h-4.33
			L1629.76,500.68z M1624.09,537.52c0-10.24,4.63-16.07,11.62-16.07c6.99,0,11.62,5.83,11.62,16.07c0,10.33-4.63,16.22-11.62,16.22
			C1628.72,553.74,1624.09,547.85,1624.09,537.52z M1642.47,537.52c0-8.14-2.76-12.09-6.76-12.09c-4,0-6.76,3.94-6.76,12.09
			c0,8.14,2.76,12.24,6.76,12.24C1639.71,549.76,1642.47,545.66,1642.47,537.52z"/>
	</g>
</g>
<g>
	<g>
		<path class="st5" d="M1251.91,560.47c0-2.61,0.21-6.92,0.37-9.53h-0.31c-1.25,2.37-2.65,4.55-4.06,7.02l-11.62,17h28.47v5.11
			h-35.19v-4.23l21.28-31.77h7.13v49.74h-6.07V560.47z"/>
		<path class="st5" d="M1270.41,568.75c0-16.68,6.01-25.62,15.94-25.62s15.94,8.97,15.94,25.62c0,16.68-6.01,25.99-15.94,25.99
			S1270.41,585.43,1270.41,568.75z M1296.07,568.75c0-14.58-3.93-20.45-9.71-20.45s-9.71,5.87-9.71,20.45
			c0,14.58,3.93,20.82,9.71,20.82S1296.07,583.33,1296.07,568.75z"/>
		<path class="st5" d="M1308.44,557.75c0-10.24,4.63-16.07,11.62-16.07s11.62,5.83,11.62,16.07c0,10.34-4.63,16.22-11.62,16.22
			S1308.44,568.08,1308.44,557.75z M1326.82,557.75c0-8.14-2.76-12.09-6.76-12.09c-4,0-6.76,3.94-6.76,12.09
			c0,8.14,2.76,12.24,6.76,12.24C1324.06,569.99,1326.82,565.89,1326.82,557.75z M1349.76,541.68h4.33l-28.22,53.06h-4.33
			L1349.76,541.68z M1344.09,578.52c0-10.24,4.63-16.07,11.62-16.07c6.99,0,11.62,5.83,11.62,16.07c0,10.33-4.63,16.22-11.62,16.22
			C1348.72,594.74,1344.09,588.85,1344.09,578.52z M1362.47,578.52c0-8.14-2.76-12.09-6.76-12.09c-4,0-6.76,3.94-6.76,12.09
			c0,8.14,2.76,12.24,6.76,12.24C1359.71,590.76,1362.47,586.66,1362.47,578.52z"/>
	</g>
</g>
<g>
	<g>
		<path class="st5" d="M1418.31,796.01c14.95-14.9,23.41-23.86,23.41-31.95c0-5.68-3.09-9.71-9.43-9.71
			c-4.16,0-7.74,2.64-10.58,5.96l-3.73-3.63c4.16-4.57,8.64-7.56,15.09-7.56c9.19,0,14.93,5.8,14.93,14.64
			c0,9.33-8.57,18.61-20.31,30.95c2.69-0.21,5.79-0.43,8.37-0.43h14.38v5.51h-32.13V796.01z"/>
		<path class="st5" d="M1457.15,787.07c0-6.46,4.71-10.88,9.39-13.37v-0.31c-3.7-2.57-6.95-6.25-6.95-11.5
			c0-7.65,6.07-12.76,14.07-12.76c8.71,0,14.06,5.5,14.06,13.23c0,5.21-3.79,9.69-6.86,12v0.31c4.44,2.62,8.65,6.13,8.65,12.78
			c0,7.46-6.41,13.29-16.02,13.29C1464.07,800.74,1457.15,794.99,1457.15,787.07z M1483.37,787.28c0-6.45-6.29-8.74-13.47-11.63
			c-4,2.6-6.96,6.28-6.96,10.85c0,5.48,4.57,9.48,10.66,9.48C1479.43,795.97,1483.37,792.4,1483.37,787.28z M1482.19,762.71
			c0-4.91-3.15-8.81-8.64-8.81c-4.64,0-8.07,3.18-8.07,7.99c0,5.94,5.51,8.44,11.47,10.81
			C1480.32,769.68,1482.19,766.37,1482.19,762.71z"/>
		<path class="st5" d="M1495.44,763.75c0-10.24,4.63-16.07,11.62-16.07s11.62,5.83,11.62,16.07c0,10.34-4.63,16.22-11.62,16.22
			S1495.44,774.08,1495.44,763.75z M1513.82,763.75c0-8.14-2.76-12.09-6.76-12.09c-4,0-6.76,3.94-6.76,12.09
			c0,8.14,2.76,12.24,6.76,12.24C1511.06,775.99,1513.82,771.89,1513.82,763.75z M1536.76,747.68h4.33l-28.22,53.06h-4.33
			L1536.76,747.68z M1531.09,784.52c0-10.24,4.63-16.07,11.62-16.07c6.99,0,11.62,5.83,11.62,16.07c0,10.33-4.63,16.22-11.62,16.22
			C1535.72,800.74,1531.09,794.85,1531.09,784.52z M1549.47,784.52c0-8.14-2.76-12.09-6.76-12.09c-4,0-6.76,3.94-6.76,12.09
			c0,8.14,2.76,12.24,6.76,12.24C1546.71,796.76,1549.47,792.66,1549.47,784.52z"/>
	</g>
</g>
<g>
	<g>
		<path class="st5" d="M574.63,578.03l0.8-0.92c0.76,0.78,1.81,1.3,2.9,1.3c1.38,0,2.2-0.69,2.2-1.71c0-1.07-0.76-1.42-1.75-1.85
			l-1.51-0.67c-0.98-0.42-2.13-1.16-2.13-2.71c0-1.6,1.4-2.79,3.31-2.79c1.25,0,2.36,0.54,3.09,1.3l-0.71,0.86
			c-0.64-0.61-1.41-0.99-2.38-0.99c-1.18,0-1.96,0.59-1.96,1.53c0,1.01,0.92,1.39,1.74,1.74l1.5,0.65c1.22,0.52,2.16,1.25,2.16,2.81
			c0,1.66-1.37,2.99-3.58,2.99C576.83,579.59,575.55,578.99,574.63,578.03z"/>
		<path class="st5" d="M583.94,568.89H590v1.13h-4.72v3.29h3.98v1.13h-3.98v3.82h4.88v1.13h-6.22V568.89z"/>
		<path class="st5" d="M591.76,574.16c0-3.39,2-5.45,4.66-5.45c1.28,0,2.27,0.62,2.89,1.3l-0.73,0.87
			c-0.55-0.59-1.25-0.99-2.13-0.99c-1.99,0-3.3,1.63-3.3,4.24c0,2.64,1.26,4.3,3.25,4.3c1,0,1.76-0.44,2.44-1.18l0.73,0.84
			c-0.83,0.96-1.86,1.52-3.22,1.52C593.72,579.59,591.76,577.57,591.76,574.16z"/>
		<path class="st5" d="M603.7,570.02h-3.18v-1.13h7.69v1.13h-3.18v9.37h-1.34V570.02z"/>
		<path class="st5" d="M609.47,574.11c0-3.36,1.85-5.41,4.49-5.41c2.64,0,4.49,2.05,4.49,5.41c0,3.37-1.85,5.48-4.49,5.48
			C611.33,579.59,609.47,577.47,609.47,574.11z M617.07,574.11c0-2.62-1.23-4.23-3.11-4.23c-1.88,0-3.11,1.61-3.11,4.23
			s1.23,4.31,3.11,4.31C615.84,578.42,617.07,576.72,617.07,574.11z"/>
		<path class="st5" d="M620.71,568.89H624c2.14,0,3.68,0.77,3.68,2.96c0,2.1-1.54,3.11-3.68,3.11h-1.95v4.44h-1.34V568.89z
			 M623.81,573.87c1.63,0,2.53-0.66,2.53-2.02c0-1.38-0.9-1.87-2.53-1.87h-1.76v3.9H623.81z M623.73,574.59l1.05-0.69l3.21,5.5
			h-1.52L623.73,574.59z"/>
		<path class="st5" d="M633.01,568.89h6.06v1.13h-4.72v3.29h3.98v1.13h-3.98v3.82h4.88v1.13h-6.22V568.89z"/>
		<path class="st5" d="M643.31,573.97l-2.86-5.08h1.48l1.43,2.69c0.26,0.48,0.49,0.92,0.82,1.53h0.06c0.28-0.61,0.49-1.05,0.74-1.53
			l1.4-2.69h1.41l-2.86,5.15l3.06,5.36h-1.47l-1.54-2.83c-0.28-0.52-0.56-1.05-0.9-1.69h-0.06c-0.31,0.64-0.57,1.17-0.83,1.69
			l-1.52,2.83h-1.41L643.31,573.97z"/>
		<path class="st5" d="M651.84,570.02h-3.18v-1.13h7.69v1.13h-3.18v9.37h-1.34V570.02z"/>
		<path class="st5" d="M658.23,568.89h3.29c2.14,0,3.68,0.77,3.68,2.96c0,2.1-1.54,3.11-3.68,3.11h-1.95v4.44h-1.34V568.89z
			 M661.33,573.87c1.63,0,2.53-0.66,2.53-2.02c0-1.38-0.9-1.87-2.53-1.87h-1.76v3.9H661.33z M661.25,574.59l1.05-0.69l3.21,5.5
			h-1.52L661.25,574.59z"/>
		<path class="st5" d="M669.49,568.89H671l3.55,10.51h-1.42l-1.83-5.87c-0.38-1.17-0.71-2.33-1.05-3.54h-0.06
			c-0.33,1.22-0.66,2.37-1.04,3.54l-1.85,5.87h-1.36L669.49,568.89z M667.81,575.13h4.84v1.07h-4.84V575.13z"/>
		<path class="st5" d="M675.43,574.16c0-3.39,2-5.45,4.66-5.45c1.28,0,2.27,0.62,2.89,1.3l-0.73,0.87
			c-0.55-0.59-1.25-0.99-2.13-0.99c-1.99,0-3.3,1.63-3.3,4.24c0,2.64,1.26,4.3,3.25,4.3c1,0,1.76-0.44,2.44-1.18l0.73,0.84
			c-0.83,0.96-1.86,1.52-3.22,1.52C677.39,579.59,675.43,577.57,675.43,574.16z"/>
		<path class="st5" d="M687.36,570.02h-3.18v-1.13h7.69v1.13h-3.18v9.37h-1.34V570.02z"/>
		<path class="st5" d="M693.14,574.11c0-3.36,1.85-5.41,4.49-5.41c2.64,0,4.49,2.05,4.49,5.41c0,3.37-1.85,5.48-4.49,5.48
			C694.99,579.59,693.14,577.47,693.14,574.11z M700.74,574.11c0-2.62-1.23-4.23-3.11-4.23c-1.88,0-3.11,1.61-3.11,4.23
			s1.23,4.31,3.11,4.31C699.5,578.42,700.74,576.72,700.74,574.11z"/>
		<path class="st5" d="M704.37,568.89h3.29c2.14,0,3.68,0.77,3.68,2.96c0,2.1-1.54,3.11-3.68,3.11h-1.95v4.44h-1.34V568.89z
			 M707.47,573.87c1.63,0,2.53-0.66,2.53-2.02c0-1.38-0.9-1.87-2.53-1.87h-1.76v3.9H707.47z M707.4,574.59l1.05-0.69l3.21,5.5h-1.52
			L707.4,574.59z"/>
	</g>
</g>
<g>
	<g>
		<path class="st5" d="M1237.45,608.89h3c2.35,0,3.94,0.79,3.94,3.09c0,2.21-1.58,3.25-3.88,3.25h-1.73v4.17h-1.34V608.89z
			 M1240.35,614.15c1.84,0,2.71-0.67,2.71-2.16c0-1.52-0.93-2.01-2.78-2.01h-1.5v4.17H1240.35z"/>
		<path class="st5" d="M1246.51,608.89h6.05v1.13h-4.72v3.29h3.98v1.13h-3.98v3.82h4.88v1.13h-6.21V608.89z"/>
		<path class="st5" d="M1254.18,618.03l0.8-0.92c0.76,0.78,1.81,1.3,2.9,1.3c1.38,0,2.2-0.69,2.2-1.71c0-1.07-0.76-1.42-1.75-1.85
			l-1.51-0.67c-0.98-0.42-2.13-1.16-2.13-2.71c0-1.6,1.4-2.79,3.31-2.79c1.25,0,2.36,0.54,3.09,1.3l-0.71,0.86
			c-0.64-0.61-1.41-0.99-2.38-0.99c-1.18,0-1.96,0.59-1.96,1.53c0,1.01,0.92,1.39,1.74,1.74l1.5,0.65c1.22,0.52,2.17,1.25,2.17,2.81
			c0,1.66-1.37,2.99-3.58,2.99C1256.38,619.59,1255.1,618.99,1254.18,618.03z"/>
		<path class="st5" d="M1262.87,614.16c0-3.39,2-5.45,4.66-5.45c1.28,0,2.28,0.62,2.89,1.3l-0.73,0.87
			c-0.55-0.59-1.25-0.99-2.13-0.99c-1.98,0-3.3,1.63-3.3,4.24c0,2.64,1.26,4.3,3.25,4.3c1,0,1.76-0.44,2.43-1.18l0.73,0.84
			c-0.83,0.96-1.86,1.52-3.22,1.52C1264.83,619.59,1262.87,617.57,1262.87,614.16z"/>
		<path class="st5" d="M1274.78,608.89h1.51l3.55,10.51h-1.42l-1.83-5.87c-0.38-1.17-0.71-2.33-1.05-3.54h-0.06
			c-0.33,1.22-0.66,2.37-1.04,3.54l-1.85,5.87h-1.36L1274.78,608.89z M1273.09,615.13h4.84v1.07h-4.84V615.13z"/>
		<path class="st5" d="M1286.68,608.89h1.51l3.55,10.51h-1.42l-1.83-5.87c-0.38-1.17-0.71-2.33-1.05-3.54h-0.06
			c-0.33,1.22-0.66,2.37-1.04,3.54l-1.85,5.87h-1.36L1286.68,608.89z M1285,615.13h4.84v1.07H1285V615.13z"/>
		<path class="st5" d="M1293.23,608.89h3.29c2.14,0,3.68,0.77,3.68,2.96c0,2.1-1.54,3.11-3.68,3.11h-1.95v4.44h-1.34V608.89z
			 M1296.33,613.87c1.63,0,2.53-0.66,2.53-2.02c0-1.38-0.9-1.87-2.53-1.87h-1.76v3.9H1296.33z M1296.25,614.59l1.05-0.69l3.21,5.5
			h-1.52L1296.25,614.59z"/>
		<path class="st5" d="M1304.52,610.02h-3.18v-1.13h7.69v1.13h-3.18v9.37h-1.34V610.02z"/>
		<path class="st5" d="M1310.91,608.89h6.06v1.13h-4.72v3.29h3.98v1.13h-3.98v3.82h4.88v1.13h-6.22V608.89z"/>
		<path class="st5" d="M1318.58,618.03l0.8-0.92c0.76,0.78,1.81,1.3,2.9,1.3c1.38,0,2.2-0.69,2.2-1.71c0-1.07-0.76-1.42-1.75-1.85
			l-1.51-0.67c-0.98-0.42-2.13-1.16-2.13-2.71c0-1.6,1.4-2.79,3.31-2.79c1.24,0,2.36,0.54,3.09,1.3l-0.71,0.86
			c-0.64-0.61-1.41-0.99-2.38-0.99c-1.18,0-1.96,0.59-1.96,1.53c0,1.01,0.92,1.39,1.74,1.74l1.5,0.65c1.21,0.52,2.16,1.25,2.16,2.81
			c0,1.66-1.37,2.99-3.58,2.99C1320.78,619.59,1319.5,618.99,1318.58,618.03z"/>
		<path class="st5" d="M1330.04,608.89h1.51l3.55,10.51h-1.42l-1.83-5.87c-0.38-1.17-0.71-2.33-1.05-3.54h-0.06
			c-0.33,1.22-0.66,2.37-1.04,3.54l-1.85,5.87h-1.36L1330.04,608.89z M1328.36,615.13h4.84v1.07h-4.84V615.13z"/>
		<path class="st5" d="M1336.59,608.89h1.38l3.8,6.6l1.13,2.18h0.06c-0.07-1.06-0.17-2.24-0.17-3.34v-5.44h1.27v10.51h-1.38
			l-3.8-6.61l-1.13-2.17h-0.06c0.07,1.06,0.17,2.18,0.17,3.28v5.5h-1.27V608.89z"/>
		<path class="st5" d="M1349.1,608.89h1.51l3.55,10.51h-1.42l-1.83-5.87c-0.38-1.17-0.71-2.33-1.05-3.54h-0.06
			c-0.32,1.22-0.66,2.37-1.04,3.54l-1.85,5.87h-1.36L1349.1,608.89z M1347.41,615.13h4.84v1.07h-4.84V615.13z"/>
		<path class="st5" d="M1355.64,608.89h1.34v9.37h4.58v1.13h-5.92V608.89z"/>
	</g>
</g>
<g>
	<g>
		<path class="st5" d="M1422.08,813.89h3c2.35,0,3.94,0.79,3.94,3.09c0,2.21-1.58,3.25-3.88,3.25h-1.73v4.17h-1.34V813.89z
			 M1424.98,819.15c1.84,0,2.71-0.67,2.71-2.16c0-1.52-0.93-2.01-2.78-2.01h-1.49v4.17H1424.98z"/>
		<path class="st5" d="M1431.14,813.89h6.05v1.13h-4.72v3.29h3.98v1.13h-3.98v3.82h4.88v1.13h-6.21V813.89z"/>
		<path class="st5" d="M1438.81,823.03l0.8-0.92c0.76,0.78,1.81,1.3,2.9,1.3c1.38,0,2.2-0.69,2.2-1.71c0-1.07-0.76-1.42-1.75-1.85
			l-1.51-0.67c-0.98-0.42-2.13-1.16-2.13-2.71c0-1.6,1.4-2.79,3.31-2.79c1.25,0,2.36,0.54,3.09,1.3l-0.71,0.86
			c-0.64-0.61-1.41-0.99-2.38-0.99c-1.18,0-1.96,0.59-1.96,1.53c0,1.01,0.92,1.39,1.74,1.74l1.5,0.65c1.22,0.52,2.17,1.25,2.17,2.81
			c0,1.66-1.37,2.99-3.58,2.99C1441.01,824.59,1439.73,823.99,1438.81,823.03z"/>
		<path class="st5" d="M1447.51,819.16c0-3.39,2-5.45,4.66-5.45c1.28,0,2.28,0.62,2.89,1.3l-0.73,0.87
			c-0.55-0.59-1.25-0.99-2.13-0.99c-1.98,0-3.3,1.63-3.3,4.24c0,2.64,1.26,4.3,3.25,4.3c1,0,1.76-0.44,2.43-1.18l0.73,0.84
			c-0.83,0.96-1.86,1.52-3.22,1.52C1449.47,824.59,1447.51,822.57,1447.51,819.16z"/>
		<path class="st5" d="M1459.41,813.89h1.51l3.55,10.51h-1.42l-1.83-5.87c-0.38-1.17-0.71-2.33-1.05-3.54h-0.06
			c-0.33,1.22-0.66,2.37-1.04,3.54l-1.85,5.87h-1.36L1459.41,813.89z M1457.73,820.13h4.84v1.07h-4.84V820.13z"/>
		<path class="st5" d="M1469.16,813.89h1.34v10.51h-1.34V813.89z"/>
		<path class="st5" d="M1473.36,813.89h1.38l3.8,6.6l1.13,2.18h0.06c-0.07-1.06-0.17-2.24-0.17-3.34v-5.44h1.27v10.51h-1.38
			l-3.8-6.61l-1.13-2.17h-0.06c0.07,1.06,0.17,2.18,0.17,3.28v5.5h-1.27V813.89z"/>
		<path class="st5" d="M1483.72,813.89h2.63c3.23,0,4.96,1.88,4.96,5.21c0,3.34-1.73,5.29-4.9,5.29h-2.69V813.89z M1486.24,823.3
			c2.46,0,3.68-1.54,3.68-4.2c0-2.66-1.23-4.12-3.68-4.12h-1.19v8.31H1486.24z"/>
		<path class="st5" d="M1493.51,820.06v-6.17h1.34v6.21c0,2.52,1.07,3.32,2.44,3.32c1.39,0,2.49-0.79,2.49-3.32v-6.21h1.28v6.17
			c0,3.37-1.63,4.53-3.77,4.53S1493.51,823.43,1493.51,820.06z"/>
		<path class="st5" d="M1503.11,823.03l0.8-0.92c0.76,0.78,1.81,1.3,2.9,1.3c1.38,0,2.2-0.69,2.2-1.71c0-1.07-0.76-1.42-1.75-1.85
			l-1.51-0.67c-0.98-0.42-2.13-1.16-2.13-2.71c0-1.6,1.4-2.79,3.31-2.79c1.25,0,2.36,0.54,3.09,1.3l-0.71,0.86
			c-0.64-0.61-1.41-0.99-2.38-0.99c-1.18,0-1.96,0.59-1.96,1.53c0,1.01,0.92,1.39,1.74,1.74l1.5,0.65c1.22,0.52,2.17,1.25,2.17,2.81
			c0,1.66-1.37,2.99-3.58,2.99C1505.31,824.59,1504.03,823.99,1503.11,823.03z"/>
		<path class="st5" d="M1514.61,815.02h-3.18v-1.13h7.69v1.13h-3.18v9.37h-1.34V815.02z"/>
		<path class="st5" d="M1521,813.89h3.29c2.14,0,3.68,0.77,3.68,2.96c0,2.1-1.54,3.11-3.68,3.11h-1.95v4.44H1521V813.89z
			 M1524.09,818.87c1.63,0,2.53-0.66,2.53-2.02c0-1.38-0.9-1.87-2.53-1.87h-1.76v3.9H1524.09z M1524.02,819.59l1.05-0.69l3.21,5.5
			h-1.52L1524.02,819.59z"/>
		<path class="st5" d="M1530.1,813.89h1.34v10.51h-1.34V813.89z"/>
		<path class="st5" d="M1536.47,813.89h1.51l3.55,10.51h-1.42l-1.83-5.87c-0.38-1.17-0.71-2.33-1.05-3.54h-0.06
			c-0.33,1.22-0.66,2.37-1.04,3.54l-1.85,5.87h-1.36L1536.47,813.89z M1534.78,820.13h4.84v1.07h-4.84V820.13z"/>
		<path class="st5" d="M1543.01,813.89h1.34v9.37h4.58v1.13h-5.92V813.89z"/>
	</g>
</g>
<g>
	<g>
		<path class="st5" d="M343.17,733.34h2.26l5.33,15.75h-2.12l-2.75-8.8c-0.57-1.76-1.07-3.49-1.58-5.31h-0.1
			c-0.49,1.83-0.99,3.55-1.56,5.31l-2.78,8.8h-2.04L343.17,733.34z M340.64,742.7h7.25v1.6h-7.25V742.7z"/>
		<path class="st5" d="M352.07,741.24c0-5.08,2.99-8.18,6.99-8.18c1.91,0,3.41,0.93,4.33,1.94l-1.1,1.31
			c-0.83-0.88-1.87-1.49-3.2-1.49c-2.98,0-4.96,2.44-4.96,6.36c0,3.96,1.89,6.44,4.88,6.44c1.5,0,2.65-0.65,3.65-1.77l1.1,1.26
			c-1.24,1.45-2.79,2.27-4.83,2.27C355.01,749.39,352.07,746.35,352.07,741.24z"/>
		<path class="st5" d="M366.62,742.59v-9.25h2v9.3c0,3.79,1.6,4.98,3.66,4.98c2.09,0,3.74-1.19,3.74-4.98v-9.3h1.92v9.25
			c0,5.05-2.44,6.79-5.66,6.79C369.07,749.39,366.62,747.65,366.62,742.59z"/>
		<path class="st5" d="M382.17,733.34h2v15.75h-2V733.34z"/>
		<path class="st5" d="M387.56,741.24c0-5.08,2.99-8.18,6.99-8.18c1.91,0,3.41,0.93,4.33,1.94l-1.1,1.31
			c-0.83-0.88-1.87-1.49-3.2-1.49c-2.98,0-4.96,2.44-4.96,6.36c0,3.96,1.89,6.44,4.88,6.44c1.5,0,2.65-0.65,3.65-1.77l1.1,1.26
			c-1.24,1.45-2.79,2.27-4.83,2.27C390.5,749.39,387.56,746.35,387.56,741.24z"/>
		<path class="st5" d="M402.12,742.59v-9.25h2v9.3c0,3.79,1.6,4.98,3.66,4.98c2.09,0,3.74-1.19,3.74-4.98v-9.3h1.92v9.25
			c0,5.05-2.44,6.79-5.66,6.79C404.56,749.39,402.12,747.65,402.12,742.59z"/>
		<path class="st5" d="M417.66,733.34h2v14.06h6.88v1.7h-8.88V733.34z"/>
		<path class="st5" d="M432.6,735.04h-4.77v-1.7h11.54v1.7h-4.77v14.06h-2V735.04z"/>
		<path class="st5" d="M442.12,742.59v-9.25h2v9.3c0,3.79,1.6,4.98,3.66,4.98c2.09,0,3.74-1.19,3.74-4.98v-9.3h1.92v9.25
			c0,5.05-2.44,6.79-5.66,6.79C444.57,749.39,442.12,747.65,442.12,742.59z"/>
		<path class="st5" d="M457.67,733.34h4.93c3.21,0,5.51,1.15,5.51,4.43c0,3.15-2.3,4.66-5.51,4.66h-2.93v6.66h-2V733.34z
			 M462.31,740.81c2.45,0,3.8-0.99,3.8-3.04c0-2.07-1.35-2.81-3.8-2.81h-2.64v5.84H462.31z M462.21,741.89l1.57-1.04l4.81,8.25
			h-2.27L462.21,741.89z"/>
		<path class="st5" d="M474.56,733.34h2.26l5.33,15.75h-2.12l-2.75-8.8c-0.57-1.76-1.07-3.49-1.58-5.31h-0.1
			c-0.49,1.83-0.99,3.55-1.56,5.31l-2.78,8.8h-2.04L474.56,733.34z M472.04,742.7h7.25v1.6h-7.25V742.7z"/>
	</g>
</g>
<polyline class="st6" points="940.5,514.87 1033.13,607.5 940.5,700.13 "/>
</svg>
